<svg width="439" height="86" viewBox="0 0 439 86" fill="none" xmlns="http://www.w3.org/2000/svg">
<path d="M3.24 25.376C4.17867 21.1947 5.50133 17.3547 7.208 13.856C9 10.272 10.536 7.75466 11.816 6.304L13.736 4L64.552 0.543999L60.84 33.44C55.464 31.392 47.3147 29.6 36.392 28.064C34.6853 33.0133 32.8507 37.664 30.888 42.016C42.664 41.6747 51.0267 41.1627 55.976 40.48L58.792 40.096C58.536 41.376 57.512 43.0827 55.72 45.216C54.0133 47.264 52.008 49.0133 49.704 50.464C47.4 51.9147 43.9867 53.28 39.464 54.56C34.9413 55.7547 29.7787 56.48 23.976 56.736C20.648 63.3067 17.4053 68.8533 14.248 73.376C10.92 71.6693 8.104 69.7067 5.8 67.488C3.496 65.2693 2.00267 63.4773 1.32 62.112L0.296 60.192C2.25867 49.952 5.88533 38.432 11.176 25.632L3.24 25.376ZM109.51 46.624C109.51 53.792 110.363 60.064 112.07 65.44L100.934 70.56C95.558 69.28 92.3153 65.7813 91.206 60.064C88.9873 62.624 86.5127 64.8 83.782 66.592C81.1367 68.384 78.918 69.28 77.126 69.28C73.1153 69.28 69.446 67.488 66.118 63.904C62.8753 60.32 61.254 56.9067 61.254 53.664C61.254 50.4213 61.9367 47.008 63.302 43.424C64.6673 39.7547 66.5873 36.256 69.062 32.928C71.5367 29.5147 74.8647 26.7413 79.046 24.608C83.2273 22.3893 87.3233 21.28 91.334 21.28C95.3447 21.28 98.246 21.92 100.038 23.2L103.366 16.544C106.353 17.6533 108.998 19.1893 111.302 21.152C113.606 23.0293 115.185 24.6507 116.038 26.016L117.318 28.064C116.038 32.928 113.905 37.7067 110.918 42.4L109.51 44.704C109.51 45.3867 109.51 46.0267 109.51 46.624ZM79.814 56.608C83.398 56.608 87.1953 54.5173 91.206 50.336C92.23 43.424 94.4487 36.0427 97.862 28.192C91.3767 31.776 86.5127 36.4267 83.27 42.144C80.6247 46.8373 79.302 50.8907 79.302 54.304C79.302 55.072 79.3873 55.84 79.558 56.608C79.6433 56.608 79.7287 56.608 79.814 56.608ZM168.299 31.008C167.019 32.9707 165.995 35.8293 165.227 39.584C164.459 43.3387 164.075 46.368 164.075 48.672C164.075 50.976 164.118 52.8533 164.203 54.304C160.79 53.792 157.718 52.8107 154.987 51.36C152.342 49.824 150.507 48.416 149.483 47.136L148.075 45.216C143.296 50.7627 140.224 54.8587 138.859 57.504C138.688 62.624 138.603 66.6773 138.603 69.664C135.531 68.9813 132.374 67.9147 129.131 66.464C125.888 64.928 123.371 63.6053 121.579 62.496L119.019 60.832C120.47 48.4587 122.603 36 125.419 23.456L126.827 16.928C130.326 17.696 133.483 18.6347 136.299 19.744C139.2 20.8533 141.206 21.7493 142.315 22.432L143.851 23.584C142.144 28.704 140.779 36.1707 139.755 45.984C141.803 41.2053 146.112 32.2027 152.683 18.976L168.299 31.008ZM243.122 1.56799C242.951 6.17599 242.866 11.424 242.866 17.312C242.866 23.2 243.165 30.0693 243.762 37.92C244.445 45.6853 245.255 51.104 246.194 54.176L247.602 58.656C241.885 63.1787 233.906 68.0853 223.666 73.376C223.751 70.304 223.794 67.2747 223.794 64.288C223.794 61.3013 223.751 58.4 223.666 55.584C220.253 56.1813 216.925 56.48 213.682 56.48C210.525 56.48 207.922 56.4373 205.874 56.352C204.679 59.7653 203.015 64.9707 200.882 71.968C197.81 70.432 194.439 68.0853 190.77 64.928C187.101 61.6853 184.242 58.4853 182.194 55.328C184.839 52.6827 187.271 48.928 189.49 44.064C194.269 33.9093 198.621 21.8773 202.546 7.968C220.978 6.60266 234.503 4.46933 243.122 1.56799ZM220.978 21.536C217.735 26.4 213.81 34.8907 209.202 47.008C210.994 47.0933 215.687 47.136 223.282 47.136C222.77 38.2613 222.13 30.752 221.362 24.608L220.978 21.536ZM279.861 13.6C275.509 22.816 273.333 32.2027 273.333 41.76C273.333 44.1493 273.546 46.112 273.973 47.648L275.125 52.256C280.16 47.2213 283.061 43.6373 283.829 41.504C283.146 37.408 282.677 33.6107 282.421 30.112L282.293 28.448C286.645 25.5467 292.064 23.2427 298.549 21.536C297.952 26.7413 297.653 30.7093 297.653 33.44C297.653 41.0347 298.293 46.5813 299.573 50.08L300.853 53.408C305.461 44.448 307.765 35.5733 307.765 26.784C307.765 23.1147 307.338 19.4027 306.485 15.648L326.837 22.56C325.557 49.0987 316.085 65.0133 298.421 70.304C295.946 69.1947 293.685 66.9333 291.637 63.52C289.674 60.0213 288.224 56.6507 287.285 53.408C283.872 57.248 280.373 60.6187 276.789 63.52C273.205 66.336 270.517 68.2133 268.725 69.152L265.909 70.56C262.325 67.9147 259.424 64.4587 257.205 60.192C255.072 55.84 253.749 51.5733 253.237 47.392C252.725 43.1253 252.469 39.072 252.469 35.232C252.469 31.392 252.682 28.2773 253.109 25.888L253.749 22.304C256.309 20.256 260.234 18.2933 265.525 16.416C270.901 14.5387 275.68 13.6 279.861 13.6ZM375.26 46.624C375.26 53.792 376.113 60.064 377.82 65.44L366.684 70.56C361.308 69.28 358.065 65.7813 356.956 60.064C354.737 62.624 352.263 64.8 349.532 66.592C346.887 68.384 344.668 69.28 342.876 69.28C338.865 69.28 335.196 67.488 331.868 63.904C328.625 60.32 327.004 56.9067 327.004 53.664C327.004 50.4213 327.687 47.008 329.052 43.424C330.417 39.7547 332.337 36.256 334.812 32.928C337.287 29.5147 340.615 26.7413 344.796 24.608C348.977 22.3893 353.073 21.28 357.084 21.28C361.095 21.28 363.996 21.92 365.788 23.2L369.116 16.544C372.103 17.6533 374.748 19.1893 377.052 21.152C379.356 23.0293 380.935 24.6507 381.788 26.016L383.068 28.064C381.788 32.928 379.655 37.7067 376.668 42.4L375.26 44.704C375.26 45.3867 375.26 46.0267 375.26 46.624ZM345.564 56.608C349.148 56.608 352.945 54.5173 356.956 50.336C357.98 43.424 360.199 36.0427 363.612 28.192C357.127 31.776 352.263 36.4267 349.02 42.144C346.375 46.8373 345.052 50.8907 345.052 54.304C345.052 55.072 345.137 55.84 345.308 56.608C345.393 56.608 345.479 56.608 345.564 56.608ZM413.069 15.776C408.888 22.688 406.797 30.496 406.797 39.2C406.797 40.3093 406.84 42.3147 406.925 45.216C407.096 48.032 407.864 51.8293 409.229 56.608C411.789 52.6827 413.965 47.8613 415.757 42.144C417.634 36.4267 418.872 31.6907 419.469 27.936L420.365 22.304C428.557 25.2053 434.616 28.8747 438.541 33.312C437.688 34.9333 436.536 37.152 435.085 39.968C433.72 42.784 431.629 48.3733 428.813 56.736C426.082 65.0133 424.205 72.992 423.181 80.672C419.597 82.3787 415.544 83.5307 411.021 84.128C406.584 84.8107 403.469 85.152 401.677 85.152C399.97 85.152 398.861 85.152 398.349 85.152L393.613 84.896C397.112 82.7627 400.226 79.776 402.957 75.936C405.773 72.1813 407.693 68.9387 408.717 66.208L410.253 62.112L397.581 69.152C394.85 66.5067 392.674 63.2213 391.053 59.296C388.493 53.0667 387.213 45.1307 387.213 35.488C387.213 32.672 387.341 30.368 387.597 28.576L388.109 25.376C388.792 24.7787 389.73 24.0107 390.925 23.072C392.205 22.048 394.978 20.6827 399.245 18.976C403.597 17.184 408.205 16.1173 413.069 15.776Z" fill="#1E1E1E"/>
</svg>
